<?xml version="1.0" encoding="UTF-8" standalone="no"?>
<!-- Created with Inkscape (http://www.inkscape.org/) -->

<svg
   width="2500"
   height="650"
   viewBox="0 0 661.45831 171.97917"
   version="1.1"
   id="svg1"
   inkscape:version="1.4.3 (0d15f75, 2025-12-25)"
   sodipodi:docname="logo_normal-fundo_transparente.svg"
   inkscape:export-filename="logo_normal-fundo_transparente.png"
   inkscape:export-xdpi="96"
   inkscape:export-ydpi="96"
   xmlns:inkscape="http://www.inkscape.org/namespaces/inkscape"
   xmlns:sodipodi="http://sodipodi.sourceforge.net/DTD/sodipodi-0.dtd"
   xmlns:xlink="http://www.w3.org/1999/xlink"
   xmlns="http://www.w3.org/2000/svg"
   xmlns:svg="http://www.w3.org/2000/svg">
  <sodipodi:namedview
     id="namedview1"
     pagecolor="#ffffff"
     bordercolor="#000000"
     borderopacity="0.25"
     inkscape:showpageshadow="2"
     inkscape:pageopacity="0.0"
     inkscape:pagecheckerboard="0"
     inkscape:deskcolor="#d1d1d1"
     inkscape:document-units="mm"
     inkscape:zoom="0.25417602"
     inkscape:cx="920.62186"
     inkscape:cy="655.05786"
     inkscape:window-width="1920"
     inkscape:window-height="1009"
     inkscape:window-x="-8"
     inkscape:window-y="-8"
     inkscape:window-maximized="1"
     inkscape:current-layer="layer1" />
  <defs
     id="defs1">
    <linearGradient
       id="linearGradient1"
       inkscape:collect="always">
      <stop
         style="stop-color:#1a3a5c;stop-opacity:1;"
         offset="0"
         id="stop1" />
      <stop
         style="stop-color:#4a9fd4;stop-opacity:1;"
         offset="1"
         id="stop2" />
    </linearGradient>
    <linearGradient
       inkscape:collect="always"
       xlink:href="#linearGradient1"
       id="linearGradient9"
       gradientUnits="userSpaceOnUse"
       gradientTransform="translate(380.03839,-34.078456)"
       x1="109.91482"
       y1="102.05735"
       x2="259.85956"
       y2="102.05735" />
    <linearGradient
       inkscape:collect="always"
       xlink:href="#linearGradient1"
       id="linearGradient17"
       gradientUnits="userSpaceOnUse"
       gradientTransform="translate(163.21377,-34.642806)"
       x1="109.91482"
       y1="102.05735"
       x2="259.85956"
       y2="102.05735" />
    <linearGradient
       id="linearGradient5-6"
       inkscape:collect="always"
       gradientTransform="scale(1.3769783,0.72622785)"
       x1="81.689804"
       y1="40.598557"
       x2="190.50192"
       y2="40.598557"
       gradientUnits="userSpaceOnUse">
      <stop
         style="stop-color:#1a3a5c;stop-opacity:1;"
         offset="0"
         id="stop21" />
      <stop
         style="stop-color:#4a9fd4;stop-opacity:1;"
         offset="1"
         id="stop22" />
    </linearGradient>
    <linearGradient
       inkscape:collect="always"
       xlink:href="#linearGradient1"
       id="linearGradient17-1"
       gradientUnits="userSpaceOnUse"
       gradientTransform="translate(378.37831,79.421658)"
       x1="109.91482"
       y1="102.05735"
       x2="259.85956"
       y2="102.05735" />
    <linearGradient
       inkscape:collect="always"
       xlink:href="#linearGradient1"
       id="linearGradient19"
       gradientUnits="userSpaceOnUse"
       gradientTransform="translate(161.55369,78.857308)"
       x1="109.91482"
       y1="102.05735"
       x2="259.85956"
       y2="102.05735" />
    <linearGradient
       id="linearGradient7-1"
       inkscape:collect="always"
       gradientTransform="scale(1.6450574,0.60788154)"
       x1="163.55943"
       y1="43.302711"
       x2="298.75562"
       y2="43.302711"
       gradientUnits="userSpaceOnUse">
      <stop
         style="stop-color:#1a3a5c;stop-opacity:1;"
         offset="0"
         id="stop6-7" />
      <stop
         style="stop-color:#4a9fd4;stop-opacity:1;"
         offset="1"
         id="stop9" />
    </linearGradient>
    <linearGradient
       inkscape:collect="always"
       xlink:href="#linearGradient1"
       id="linearGradient4"
       gradientUnits="userSpaceOnUse"
       gradientTransform="translate(164.00407,-26.450724)"
       x1="109.91482"
       y1="102.05735"
       x2="259.85956"
       y2="102.05735" />
    <linearGradient
       inkscape:collect="always"
       xlink:href="#linearGradient1"
       id="linearGradient7"
       gradientUnits="userSpaceOnUse"
       gradientTransform="translate(161.55369,78.857308)"
       x1="109.91482"
       y1="102.05735"
       x2="259.85956"
       y2="102.05735" />
    <linearGradient
       inkscape:collect="always"
       xlink:href="#linearGradient5-6"
       id="linearGradient10"
       gradientUnits="userSpaceOnUse"
       gradientTransform="scale(1.3769783,0.72622785)"
       x1="81.689804"
       y1="40.598557"
       x2="190.50192"
       y2="40.598557" />
  </defs>
  <g
     inkscape:label="Camada 1"
     inkscape:groupmode="layer"
     id="layer1"
     transform="translate(186.79584,-19.05)">
    <g
       id="g5-6-2"
       transform="translate(-252.15135,37.624991)"
       inkscape:label="Texto PA GeoTec - Gradiente - Contorno Preto">
      <path
         d="M 508.58,115.68217 V 51.561215 H 483.29286 V 36.659867 h 68.86229 v 14.901348 h -25.28713 v 64.120955 z m 72.11841,0.90311 q -10.38579,0 -18.28802,-4.064 -7.78934,-4.06401 -12.07912,-11.06313 -4.28979,-7.112004 -4.28979,-16.143124 0,-9.144009 4.1769,-16.143127 4.28978,-7.112007 11.62756,-11.063122 7.33779,-4.064004 16.59469,-4.064004 8.91823,0 16.03023,3.838226 7.2249,3.725337 11.40179,10.837344 4.1769,6.999118 4.1769,16.820461 0,1.016001 -0.11289,2.370669 -0.11289,1.241779 -0.22578,2.370669 H 560.37839 V 80.009243 h 40.07559 l -6.77334,3.048003 q 0,-4.741338 -1.91911,-8.240897 -1.91911,-3.499559 -5.30578,-5.418672 -3.38667,-2.032002 -7.90223,-2.032002 -4.51556,0 -8.01512,2.032002 -3.38667,1.919113 -5.30579,5.531561 -1.91911,3.499559 -1.91911,8.353786 v 2.709336 q 0,4.967116 2.14489,8.805342 2.25778,3.725337 6.2089,5.757338 4.064,1.91911 9.48267,1.91911 4.85423,0 8.46668,-1.46755 3.72533,-1.46756 6.77334,-4.402674 l 9.36978,10.160014 q -4.17689,4.74133 -10.49867,7.33778 -6.32179,2.48356 -14.56268,2.48356 z m 66.47404,0 q -9.82135,0 -17.4978,-3.95112 -7.67645,-4.064 -12.07912,-11.17601 -4.28978,-7.112004 -4.28978,-16.143124 0,-9.144009 4.28978,-16.143127 4.40267,-7.112007 12.07912,-11.063122 7.67645,-4.064004 17.4978,-4.064004 9.59556,0 16.70757,4.064004 7.11201,3.951115 10.49868,11.401789 l -13.65957,7.337785 q -2.37067,-4.289782 -5.98312,-6.321784 -3.49956,-2.032002 -7.67645,-2.032002 -4.51556,0 -8.12801,2.032002 -3.61245,2.032002 -5.75734,5.757339 -2.032,3.725337 -2.032,9.03112 0,5.305783 2.032,9.03112 2.14489,3.725337 5.75734,5.757344 3.61245,2.032 8.12801,2.032 4.17689,0 7.67645,-1.91912 3.61245,-2.031998 5.98312,-6.434669 l 13.65957,7.450679 q -3.38667,7.33778 -10.49868,11.40178 -7.11201,3.95112 -16.70757,3.95112 z"
         id="text1-9-2-1-63-8"
         style="font-weight:bold;font-size:112.889px;line-height:0;font-family:Montserrat;-inkscape-font-specification:'Montserrat Bold';letter-spacing:-3.96875px;fill:url(#linearGradient17-1);stroke:#000000;stroke-width:2.64583;stroke-linecap:round;stroke-linejoin:round;paint-order:stroke markers fill"
         inkscape:label="Tec - Back"
         transform="translate(-0.79032423,-8.1920874)"
         aria-label="Tec" />
      <path
         d="m 313.43004,116.69827 q -9.36978,0 -17.3849,-2.93511 -8.01512,-3.048 -13.88535,-8.57956 -5.75734,-5.531565 -9.03112,-12.982239 -3.27378,-7.563563 -3.27378,-16.594683 0,-9.03112 3.27378,-16.481794 3.27378,-7.563563 9.14401,-13.095124 5.87023,-5.531561 13.88535,-8.466675 8.128,-3.048003 17.72357,-3.048003 11.17601,0 19.98135,3.725337 8.80534,3.725337 14.56268,10.724455 L 334.20162,61.83422 q -4.06401,-4.402671 -8.80534,-6.547562 -4.62845,-2.25778 -10.38579,-2.25778 -5.08001,0 -9.2569,1.580446 -4.17689,1.580446 -7.11201,4.628449 -2.93511,2.935114 -4.62845,7.112007 -1.58044,4.064004 -1.58044,9.256898 0,4.967116 1.58044,9.144009 1.69334,4.176893 4.62845,7.224896 2.93512,2.935114 6.99912,4.628449 4.17689,1.580446 9.14401,1.580446 4.96712,0 9.70845,-1.580446 4.74134,-1.693335 9.59557,-5.64445 l 12.53068,15.691568 q -6.77334,4.85423 -15.69157,7.45068 -8.91823,2.59644 -17.4978,2.59644 z m 33.18937,-10.04712 -19.75558,-2.93511 V 73.913343 h 19.75558 z m 42.62271,9.48268 q -10.83734,0 -18.96535,-4.064 -8.01512,-4.1769 -12.53068,-11.2889 -4.40267,-7.224901 -4.40267,-16.36891 0,-9.144009 4.28978,-16.256016 4.40267,-7.224896 12.07913,-11.176011 7.67645,-4.064004 17.27201,-4.064004 9.03112,0 16.4818,3.725337 7.45067,3.612448 11.85334,10.724455 4.40267,7.112007 4.40267,17.272017 0,1.12889 -0.11289,2.596447 -0.11289,1.467557 -0.22577,2.709336 H 370.9541 v -11.2889 h 37.0276 l -8.12801,3.160892 q 0.11289,-4.176893 -1.58045,-7.224896 -1.58044,-3.048003 -4.51556,-4.741338 -2.82222,-1.693335 -6.66045,-1.693335 -3.83822,0 -6.77334,1.693335 -2.82222,1.693335 -4.40267,4.854227 -1.58045,3.048003 -1.58045,7.224896 v 3.273781 q 0,4.51556 1.80623,7.789341 1.91911,3.273781 5.41867,5.080005 3.49956,1.693335 8.35379,1.693335 4.51556,0 7.67645,-1.241779 3.27378,-1.354668 6.43467,-4.064004 l 11.2889,11.740459 q -4.40267,4.85422 -10.83734,7.45067 -6.43468,2.48356 -15.24002,2.48356 z m 68.47426,0 q -10.04712,0 -17.83646,-4.064 -7.78934,-4.06401 -12.3049,-11.17602 -4.40267,-7.224892 -4.40267,-16.48179 0,-9.256898 4.40267,-16.368905 4.51556,-7.112007 12.3049,-11.063122 7.78934,-4.064004 17.83646,-4.064004 10.04712,0 17.83646,4.064004 7.90223,3.951115 12.3049,11.063122 4.40267,7.112007 4.40267,16.368905 0,9.256898 -4.40267,16.48179 -4.40267,7.11201 -12.3049,11.17602 -7.78934,4.064 -17.83646,4.064 z m 0,-17.04624 q 3.72534,0 6.54756,-1.693335 2.93512,-1.693335 4.62845,-4.967116 1.69334,-3.38667 1.69334,-8.015119 0,-4.628449 -1.69334,-7.789341 -1.69333,-3.273781 -4.62845,-4.967116 -2.82222,-1.693335 -6.54756,-1.693335 -3.61245,0 -6.54756,1.693335 -2.82223,1.693335 -4.62845,4.967116 -1.69334,3.160892 -1.69334,7.789341 0,4.628449 1.69334,8.015119 1.80622,3.273781 4.62845,4.967116 2.93511,1.693335 6.54756,1.693335 z"
         id="text1-9-4-5-0"
         style="font-weight:800;font-size:112.889px;line-height:0;font-family:Montserrat;-inkscape-font-specification:'Montserrat Ultra-Bold';letter-spacing:-2.64583px;fill:url(#linearGradient4);stroke:#000000;stroke-width:2.64583;stroke-linecap:round;stroke-linejoin:round;paint-order:stroke markers fill"
         inkscape:label="Geo - Back"
         transform="translate(-0.79032423,-8.1920874)"
         aria-label="Geo" />
      <path
         d="M 118.58101,108.50619 V 29.483887 h 36.12448 q 10.83734,0 18.62668,3.499559 7.90223,3.499559 12.19202,10.16001 4.28978,6.547562 4.28978,15.578682 0,8.918231 -4.28978,15.465793 -4.28979,6.547562 -12.19202,10.16001 -7.78934,3.499559 -18.62668,3.499559 H 130.9988 l 9.93423,-9.708454 V 108.50619 Z M 140.93303,80.509715 130.9988,70.236816 h 22.35202 q 6.99912,0 10.38579,-3.048003 3.49956,-3.048003 3.49956,-8.466675 0,-5.531561 -3.49956,-8.579564 -3.38667,-3.048003 -10.38579,-3.048003 H 130.9988 l 9.93423,-10.272899 z m 35.70113,27.996475 34.8827,-79.022303 h 22.01336 l 34.99559,79.022303 H 245.27067 L 217.95154,40.43412 h 8.80534 l -27.31914,68.07207 z m 19.07824,-15.352907 5.75734,-16.481794 h 38.60804 l 5.75734,16.481794 z"
         id="text1-6-4"
         style="font-weight:800;font-size:112.889px;line-height:0;font-family:Montserrat;-inkscape-font-specification:'Montserrat Ultra-Bold';letter-spacing:-10.5833px;fill:url(#linearGradient7);stroke:#000000;stroke-width:2.64583;stroke-linecap:round;stroke-linejoin:round;paint-order:stroke markers fill"
         inkscape:label="PA - Back"
         aria-label="PA" />
      <path
         d="M 507.78969,107.49009 V 43.369137 H 482.50255 V 28.467789 h 68.86229 V 43.369137 H 526.0777 v 64.120953 z m 72.1184,0.90311 q -10.38579,0 -18.28802,-4.064 -7.78934,-4.06401 -12.07912,-11.063125 -4.28978,-7.112007 -4.28978,-16.143127 0,-9.144009 4.17689,-16.143127 4.28978,-7.112007 11.62757,-11.063122 7.33778,-4.064004 16.59468,-4.064004 8.91823,0 16.03024,3.838226 7.2249,3.725337 11.40179,10.837344 4.17689,6.999118 4.17689,16.820461 0,1.016001 -0.11289,2.370669 -0.11289,1.241779 -0.22577,2.370669 h -49.3325 V 71.817165 h 40.0756 l -6.77334,3.048003 q 0,-4.741338 -1.91912,-8.240897 -1.91911,-3.499559 -5.30578,-5.418672 -3.38667,-2.032002 -7.90223,-2.032002 -4.51556,0 -8.01512,2.032002 -3.38667,1.919113 -5.30578,5.531561 -1.91911,3.499559 -1.91911,8.353786 v 2.709336 q 0,4.967116 2.14489,8.805342 2.25778,3.725337 6.20889,5.757339 4.06401,1.919113 9.48268,1.919113 4.85423,0 8.46667,-1.467557 3.72534,-1.467557 6.77334,-4.402671 l 9.36979,10.16001 q -4.17689,4.741342 -10.49868,7.337782 -6.32178,2.48356 -14.56268,2.48356 z m 66.47404,0 q -9.82134,0 -17.49779,-3.95111 -7.67645,-4.06401 -12.07913,-11.176015 -4.28978,-7.112007 -4.28978,-16.143127 0,-9.144009 4.28978,-16.143127 4.40268,-7.112007 12.07913,-11.063122 7.67645,-4.064004 17.49779,-4.064004 9.59557,0 16.70757,4.064004 7.11201,3.951115 10.49868,11.401789 l -13.65957,7.337785 q -2.37067,-4.289782 -5.98311,-6.321784 -3.49956,-2.032002 -7.67646,-2.032002 -4.51556,0 -8.128,2.032002 -3.61245,2.032002 -5.75734,5.757339 -2.03201,3.725337 -2.03201,9.03112 0,5.305783 2.03201,9.03112 2.14489,3.725337 5.75734,5.757339 3.61244,2.032002 8.128,2.032002 4.1769,0 7.67646,-1.919113 3.61244,-2.032002 5.98311,-6.434673 l 13.65957,7.450674 q -3.38667,7.337783 -10.49868,11.401793 -7.112,3.95111 -16.70757,3.95111 z"
         id="text1-9-2-1-65"
         style="font-weight:bold;font-size:112.889px;line-height:0;font-family:Montserrat;-inkscape-font-specification:'Montserrat Bold';letter-spacing:-3.96875px;fill:url(#linearGradient19);stroke-width:2.64583;paint-order:stroke markers fill"
         inkscape:label="Tec - Front"
         aria-label="Tec" />
      <path
         d="m 312.63976,108.50619 q -9.36979,0 -17.38491,-2.93511 -8.01512,-3.04801 -13.88534,-8.579569 -5.75734,-5.531561 -9.03112,-12.982235 -3.27378,-7.563563 -3.27378,-16.594683 0,-9.03112 3.27378,-16.481794 3.27378,-7.563563 9.14401,-13.095124 5.87022,-5.531561 13.88534,-8.466675 8.12801,-3.048003 17.72358,-3.048003 11.17601,0 19.98135,3.725337 8.80534,3.725337 14.56268,10.724455 l -14.22401,12.869346 q -4.06401,-4.402671 -8.80535,-6.547562 -4.62845,-2.25778 -10.38578,-2.25778 -5.08001,0 -9.2569,1.580446 -4.1769,1.580446 -7.11201,4.628449 -2.93511,2.935114 -4.62845,7.112007 -1.58044,4.064004 -1.58044,9.256898 0,4.967116 1.58044,9.144009 1.69334,4.176893 4.62845,7.224896 2.93511,2.935114 6.99912,4.628449 4.17689,1.580446 9.14401,1.580446 4.96711,0 9.70845,-1.580446 4.74134,-1.693335 9.59557,-5.64445 l 12.53068,15.691571 q -6.77334,4.854232 -15.69158,7.450672 -8.91823,2.59645 -17.49779,2.59645 z M 345.82913,98.459068 326.07355,95.523954 V 65.721258 h 19.75558 z m 42.62271,9.482672 q -10.83734,0 -18.96535,-4.064 -8.01512,-4.176893 -12.53068,-11.2889 -4.40267,-7.224896 -4.40267,-16.368905 0,-9.144009 4.28978,-16.256016 4.40267,-7.224896 12.07912,-11.176011 7.67645,-4.064004 17.27202,-4.064004 9.03112,0 16.48179,3.725337 7.45068,3.612448 11.85335,10.724455 4.40267,7.112007 4.40267,17.272017 0,1.12889 -0.11289,2.596447 -0.11289,1.467557 -0.22578,2.709336 h -48.42938 v -11.2889 h 37.02759 l -8.128,3.160892 q 0.11288,-4.176893 -1.58045,-7.224896 -1.58045,-3.048003 -4.51556,-4.741338 -2.82223,-1.693335 -6.66045,-1.693335 -3.83823,0 -6.77334,1.693335 -2.82223,1.693335 -4.40267,4.854227 -1.58045,3.048003 -1.58045,7.224896 v 3.273781 q 0,4.51556 1.80623,7.789341 1.91911,3.273781 5.41867,5.080005 3.49956,1.693335 8.35378,1.693335 4.51556,0 7.67646,-1.241779 3.27378,-1.354668 6.43467,-4.064004 l 11.2889,11.740456 q -4.40267,4.854228 -10.83735,7.450678 -6.43467,2.48355 -15.24001,2.48355 z m 68.47426,0 q -10.04712,0 -17.83646,-4.064 -7.78935,-4.064004 -12.30491,-11.176011 -4.40267,-7.224896 -4.40267,-16.481794 0,-9.256898 4.40267,-16.368905 4.51556,-7.112007 12.30491,-11.063122 7.78934,-4.064004 17.83646,-4.064004 10.04712,0 17.83646,4.064004 7.90223,3.951115 12.3049,11.063122 4.40267,7.112007 4.40267,16.368905 0,9.256898 -4.40267,16.481794 -4.40267,7.112007 -12.3049,11.176011 -7.78934,4.064 -17.83646,4.064 z m 0,-17.046235 q 3.72533,0 6.54756,-1.693335 2.93511,-1.693335 4.62845,-4.967116 1.69333,-3.38667 1.69333,-8.015119 0,-4.628449 -1.69333,-7.789341 -1.69334,-3.273781 -4.62845,-4.967116 -2.82223,-1.693335 -6.54756,-1.693335 -3.61245,0 -6.54756,1.693335 -2.82223,1.693335 -4.62845,4.967116 -1.69334,3.160892 -1.69334,7.789341 0,4.628449 1.69334,8.015119 1.80622,3.273781 4.62845,4.967116 2.93511,1.693335 6.54756,1.693335 z"
         id="text1-9-4-9"
         style="font-weight:800;font-size:112.889px;line-height:0;font-family:Montserrat;-inkscape-font-specification:'Montserrat Ultra-Bold';letter-spacing:-2.64583px;fill:url(#linearGradient7-1);stroke-width:2.64583;paint-order:stroke markers fill"
         inkscape:label="Geo - Front"
         aria-label="Geo" />
      <path
         style="font-weight:800;font-size:112.889px;line-height:0;font-family:Montserrat;-inkscape-font-specification:'Montserrat Ultra-Bold';letter-spacing:-10.5833px;fill:url(#linearGradient10);stroke-width:2.64583;paint-order:stroke markers fill"
         d="M 118.58101,108.50619 V 29.483887 h 36.12448 q 10.83734,0 18.62668,3.499559 7.90223,3.499559 12.19202,10.16001 4.28978,6.547562 4.28978,15.578682 0,8.918231 -4.28978,15.465793 -4.28979,6.547562 -12.19202,10.16001 -7.78934,3.499559 -18.62668,3.499559 H 130.9988 l 9.93423,-9.708454 V 108.50619 Z M 140.93303,80.509715 130.9988,70.236816 h 22.35202 q 6.99912,0 10.38579,-3.048003 3.49956,-3.048003 3.49956,-8.466675 0,-5.531561 -3.49956,-8.579564 -3.38667,-3.048003 -10.38579,-3.048003 H 130.9988 l 9.93423,-10.272899 z m 35.70113,27.996475 34.8827,-79.022303 h 22.01336 l 34.99559,79.022303 H 245.27067 L 217.95154,40.43412 h 8.80534 l -27.31914,68.07207 z m 19.07824,-15.352907 5.75734,-16.481794 h 38.60804 l 5.75734,16.481794 z"
         id="text1-1-8-06"
         inkscape:label="PA - Front"
         aria-label="PA" />
    </g>
  </g>
</svg>
